<?xml version="1.0" encoding="utf-8"?>
<!-- Generator: Adobe Illustrator 21.1.0, SVG Export Plug-In . SVG Version: 6.00 Build 0)  -->
<svg version="1.1" id="Layer_1" xmlns="http://www.w3.org/2000/svg" xmlns:xlink="http://www.w3.org/1999/xlink" x="0px" y="0px"
	 viewBox="0 0 594 465.5" style="enable-background:new 0 0 594 465.5;" xml:space="preserve">
<style type="text/css">
	.st0{fill-rule:evenodd;clip-rule:evenodd;fill:url(#SVGID_1_);}
	.st1{fill-rule:evenodd;clip-rule:evenodd;fill:url(#SVGID_2_);}
	.st2{fill-rule:evenodd;clip-rule:evenodd;fill:#D47EB1;}
	.st3{fill-rule:evenodd;clip-rule:evenodd;fill:#FFFFFF;}
	.st4{fill-rule:evenodd;clip-rule:evenodd;fill:url(#SVGID_3_);}
	.st5{fill-rule:evenodd;clip-rule:evenodd;fill:url(#SVGID_4_);}
	.st6{fill-rule:evenodd;clip-rule:evenodd;fill:url(#SVGID_5_);}
</style>
<g>
	<linearGradient id="SVGID_1_" gradientUnits="userSpaceOnUse" x1="765.0333" y1="-421.9719" x2="-74.4042" y2="652.4592">
		<stop  offset="0" style="stop-color:#A5CD39"/>
		<stop  offset="0.12" style="stop-color:#A5CD39"/>
		<stop  offset="1" style="stop-color:#00A551"/>
	</linearGradient>
	<path class="st0" d="M594,5.6c-35.1,96.8-121.4,196-242.5,265.9c-121.1,69.9-250.1,95-351.5,77.1c35.1-96.8,121.4-196,242.5-265.9
		C363.6,12.7,492.6-12.4,594,5.6z"/>
	<linearGradient id="SVGID_2_" gradientUnits="userSpaceOnUse" x1="308.1715" y1="-36.0813" x2="286.6418" y2="374.7308">
		<stop  offset="0" style="stop-color:#6D065C"/>
		<stop  offset="0.16" style="stop-color:#6D065C"/>
		<stop  offset="1" style="stop-color:#A2238D"/>
	</linearGradient>
	<circle class="st1" cx="297" cy="177.1" r="173.4"/>
	<g>
		<path class="st2" d="M345.5,328.5c0.4,1.9,0.3,3.7-0.3,5.3c-0.7,1.6-1.9,2.6-3.8,3c-1.7,0.4-3.3,0.1-4.7-0.8c-1.4-1-2.4-2.6-2.9-5
			c-0.5-2.3-0.4-4.2,0.5-5.7c0.8-1.5,2.1-2.4,3.7-2.8c1.6-0.4,3.2-0.1,4.5,0.9C343.9,324.3,344.9,326.1,345.5,328.5L345.5,328.5z
			 M340.7,334.5c0.8-0.2,1.4-0.7,1.8-1.5c0.4-0.8,0.4-2.2-0.1-4.1c-0.4-1.7-1-2.9-1.7-3.5c-0.7-0.6-1.5-0.8-2.3-0.6
			c-0.8,0.2-1.5,0.7-1.8,1.5c-0.4,0.8-0.4,2.2,0.1,4.1c0.4,1.7,1,2.9,1.7,3.5C339.1,334.5,339.9,334.7,340.7,334.5L340.7,334.5z
			 M334.7,308.3l-2.8,0.6l-8.2,32l2.7-0.6L334.7,308.3L334.7,308.3z M324.7,318.3c0.4,1.9,0.3,3.7-0.3,5.3c-0.7,1.6-1.9,2.6-3.8,3
			c-1.7,0.4-3.3,0.1-4.7-0.8c-1.4-1-2.4-2.6-2.9-5c-0.5-2.3-0.4-4.2,0.5-5.7c0.8-1.5,2.1-2.4,3.8-2.8c1.6-0.4,3.1-0.1,4.5,0.9
			C323.2,314.1,324.1,315.9,324.7,318.3L324.7,318.3z M320,324.3c0.8-0.2,1.4-0.7,1.8-1.5c0.4-0.8,0.4-2.2-0.1-4.1
			c-0.4-1.7-1-2.9-1.7-3.4c-0.7-0.6-1.5-0.8-2.3-0.6c-0.9,0.2-1.5,0.7-1.8,1.5c-0.4,0.8-0.4,2.2,0.1,4.1c0.4,1.7,1,2.9,1.7,3.5
			C318.4,324.3,319.1,324.5,320,324.3L320,324.3z M306.2,335.8c-0.1,2-0.6,3.7-1.6,5c-1,1.4-2.5,2-4.4,2c-1.7,0-3.2-0.7-4.3-2
			c-1.1-1.3-1.6-3.1-1.6-5.5c0.1-2.3,0.7-4.1,1.9-5.4c1.2-1.2,2.6-1.8,4.3-1.8c1.7,0,3.1,0.7,4.2,2
			C305.8,331.4,306.3,333.3,306.2,335.8L306.2,335.8z M300.2,340.4c0.8,0,1.6-0.3,2.1-1c0.6-0.7,0.9-2.1,1-4c0-1.8-0.2-3-0.8-3.8
			c-0.6-0.7-1.2-1.1-2.1-1.1c-0.9,0-1.6,0.3-2.2,1c-0.6,0.7-0.9,2-0.9,4c0,1.8,0.2,3,0.8,3.8C298.6,340,299.3,340.4,300.2,340.4
			L300.2,340.4z M300.8,313.5l-2.8-0.1l-15.9,28.9l2.8,0.1L300.8,313.5L300.8,313.5z M288.7,320.7c-0.1,2-0.6,3.7-1.6,5
			c-1,1.4-2.5,2-4.4,2c-1.7,0-3.2-0.7-4.3-2c-1.1-1.3-1.6-3.1-1.6-5.5c0.1-2.3,0.7-4.1,1.9-5.4c1.2-1.2,2.6-1.8,4.4-1.8
			c1.7,0,3.1,0.7,4.2,2C288.2,316.3,288.7,318.2,288.7,320.7L288.7,320.7z M282.6,325.4c-0.8,0-1.5-0.4-2.1-1.1
			c-0.6-0.7-0.8-2-0.8-3.8c0-1.9,0.4-3.3,0.9-4c0.6-0.7,1.3-1.1,2.2-1c0.8,0,1.5,0.4,2.1,1.1c0.6,0.7,0.8,2,0.8,3.8
			c0,1.9-0.4,3.3-0.9,4C284.2,325,283.4,325.4,282.6,325.4L282.6,325.4z M266.4,333.1c-0.5,1.9-1.5,3.4-2.8,4.5
			c-1.3,1.1-2.9,1.3-4.8,0.8c-1.7-0.5-2.9-1.5-3.7-3c-0.8-1.5-0.8-3.4-0.2-5.7c0.6-2.3,1.7-3.8,3.2-4.8c1.5-0.9,3-1.1,4.6-0.7
			c1.6,0.5,2.8,1.4,3.5,3C267.1,328.7,267.1,330.7,266.4,333.1L266.4,333.1z M259.4,336.1c0.8,0.2,1.6,0.1,2.3-0.5
			c0.7-0.5,1.4-1.8,1.9-3.6c0.5-1.7,0.6-3,0.2-3.8c-0.3-0.9-0.9-1.4-1.7-1.6c-0.8-0.2-1.6-0.1-2.4,0.5c-0.7,0.6-1.4,1.8-1.9,3.6
			c-0.5,1.7-0.6,3-0.2,3.9C258,335.3,258.6,335.9,259.4,336.1L259.4,336.1z M266.7,310.2l-2.7-0.8l-22.6,24l2.7,0.8L266.7,310.2
			L266.7,310.2z M253.2,314.2c-0.5,1.9-1.5,3.4-2.8,4.5c-1.3,1.1-2.9,1.3-4.8,0.8c-1.7-0.5-2.9-1.5-3.7-3c-0.8-1.5-0.8-3.4-0.2-5.7
			c0.6-2.3,1.7-3.8,3.2-4.8c1.5-0.9,3-1.1,4.7-0.7c1.6,0.5,2.8,1.4,3.5,3C253.8,309.8,253.8,311.8,253.2,314.2L253.2,314.2z
			 M246.1,317.2c-0.8-0.2-1.4-0.8-1.7-1.6c-0.4-0.8-0.3-2.1,0.2-3.9c0.5-1.9,1.2-3.1,1.9-3.6c0.7-0.5,1.5-0.7,2.4-0.5
			c0.8,0.2,1.4,0.8,1.7,1.6c0.3,0.9,0.3,2.1-0.2,3.8c-0.5,1.9-1.2,3.1-1.9,3.6C247.7,317.2,246.9,317.4,246.1,317.2L246.1,317.2z
			 M228.7,320.6c-1,1.7-2.3,2.9-3.8,3.6c-1.6,0.7-3.2,0.6-4.8-0.4c-1.5-0.9-2.5-2.1-2.8-3.8c-0.4-1.6,0-3.5,1.2-5.6
			c1.2-2,2.6-3.3,4.2-3.8c1.6-0.5,3.2-0.4,4.7,0.5c1.5,0.8,2.4,2.1,2.7,3.7C230.4,316.5,230,318.4,228.7,320.6L228.7,320.6z
			 M221.2,321.8c0.7,0.4,1.5,0.5,2.4,0.1c0.9-0.4,1.8-1.4,2.7-3.1c0.9-1.5,1.3-2.8,1.1-3.7c-0.1-0.9-0.6-1.6-1.3-2
			c-0.7-0.4-1.5-0.5-2.4-0.1c-0.9,0.4-1.8,1.4-2.7,3c-0.9,1.5-1.3,2.8-1.1,3.7C220,320.7,220.4,321.4,221.2,321.8L221.2,321.8z
			 M234.6,298.4l-2.4-1.4l-27.7,17.9l2.4,1.4L234.6,298.4L234.6,298.4z M220.4,299c-1,1.7-2.3,2.9-3.8,3.6c-1.6,0.7-3.2,0.6-4.8-0.4
			c-1.5-0.9-2.5-2.1-2.8-3.8c-0.4-1.6,0-3.5,1.2-5.6c1.2-2,2.6-3.3,4.2-3.8c1.6-0.5,3.2-0.4,4.7,0.5c1.5,0.8,2.4,2.1,2.7,3.7
			C222.1,294.9,221.7,296.8,220.4,299L220.4,299z M212.9,300.2c-0.7-0.4-1.2-1.1-1.3-2c-0.1-0.9,0.2-2.1,1.1-3.7
			c1-1.7,1.9-2.7,2.7-3c0.9-0.4,1.7-0.3,2.4,0.1c0.7,0.4,1.1,1.1,1.3,2c0.1,0.9-0.2,2.1-1.1,3.7c-1,1.7-1.9,2.7-2.7,3.1
			C214.4,300.6,213.6,300.6,212.9,300.2L212.9,300.2z M194.2,298.9c-1.4,1.4-3,2.2-4.7,2.4c-1.7,0.2-3.2-0.3-4.5-1.7
			c-1.2-1.3-1.8-2.7-1.6-4.4c0.1-1.7,1-3.4,2.8-5c1.7-1.6,3.4-2.5,5.1-2.5c1.7,0,3.2,0.6,4.3,1.8c1.2,1.2,1.7,2.7,1.6,4.3
			C197,295.5,196.1,297.2,194.2,298.9L194.2,298.9z M186.7,297.9c0.6,0.6,1.3,0.9,2.3,0.8c0.9-0.1,2.1-0.8,3.5-2.2
			c1.3-1.2,2-2.3,2.1-3.2c0.1-0.9-0.1-1.7-0.7-2.3c-0.6-0.6-1.3-0.9-2.3-0.8c-0.9,0.1-2.1,0.8-3.5,2.2c-1.3,1.2-2,2.3-2.1,3.2
			C185.8,296.6,186.1,297.3,186.7,297.9L186.7,297.9z M206.1,279.3l-1.9-2l-31.6,9.3l1.9,2L206.1,279.3L206.1,279.3z M192.4,275.9
			c-1.4,1.4-3,2.2-4.7,2.4c-1.7,0.2-3.2-0.3-4.5-1.7c-1.2-1.3-1.8-2.7-1.6-4.4c0.1-1.7,1-3.4,2.8-5c1.7-1.6,3.4-2.5,5.1-2.5
			c1.7,0,3.2,0.6,4.3,1.8c1.2,1.2,1.7,2.7,1.5,4.3C195.2,272.4,194.2,274.1,192.4,275.9L192.4,275.9z M184.8,274.8
			c0.6,0.6,1.3,0.9,2.3,0.8c0.9-0.1,2.1-0.8,3.5-2.2c1.3-1.2,2-2.3,2.1-3.2c0.1-0.9-0.1-1.7-0.7-2.3c-0.6-0.6-1.4-0.9-2.3-0.8
			c-0.9,0.1-2.1,0.8-3.5,2.2c-1.3,1.2-2,2.3-2.1,3.2C184,273.5,184.3,274.2,184.8,274.8L184.8,274.8z M167.4,269.7
			c-1.7,1-3.4,1.4-5.1,1.2c-1.7-0.2-3-1.1-4-2.7c-0.9-1.5-1.1-3.1-0.5-4.7c0.5-1.6,1.8-3,3.9-4.2c2-1.2,3.9-1.6,5.6-1.2
			c1.7,0.4,2.9,1.3,3.8,2.8c0.8,1.5,1,3,0.5,4.6C170.9,267,169.6,268.4,167.4,269.7L167.4,269.7z M160.3,266.9
			c0.4,0.7,1.1,1.2,2,1.3c0.9,0.1,2.2-0.3,3.9-1.3c1.5-0.9,2.5-1.8,2.8-2.6c0.3-0.9,0.3-1.6-0.1-2.4c-0.4-0.7-1.1-1.2-2-1.3
			c-0.9-0.1-2.2,0.3-3.9,1.3c-1.5,0.9-2.5,1.8-2.8,2.6C159.8,265.4,159.9,266.1,160.3,266.9L160.3,266.9z M183.6,253.4l-33,1.4
			l-1.4-2.4l32.9-1.5L183.6,253.4L183.6,253.4z M171.1,246.8c-1.7,1-3.4,1.4-5.1,1.2c-1.7-0.2-3-1.1-4-2.8c-0.9-1.5-1.1-3.1-0.5-4.7
			c0.5-1.6,1.8-3,3.9-4.2c2-1.2,3.9-1.6,5.6-1.2c1.7,0.4,2.9,1.3,3.8,2.8c0.8,1.5,1,3,0.5,4.6C174.6,244.1,173.3,245.6,171.1,246.8
			L171.1,246.8z M164,244c0.4,0.7,1.1,1.2,2,1.3c0.9,0.1,2.2-0.3,3.9-1.3c1.5-0.9,2.5-1.7,2.8-2.6c0.4-0.9,0.3-1.6-0.1-2.4
			c-0.4-0.8-1.1-1.2-2-1.3c-0.9-0.1-2.2,0.3-3.9,1.3c-1.5,0.9-2.5,1.8-2.8,2.6C163.5,242.5,163.6,243.3,164,244L164,244z
			 M148.5,234.6c-1.9,0.5-3.7,0.5-5.3-0.1c-1.6-0.6-2.7-1.8-3.2-3.6c-0.5-1.7-0.3-3.2,0.6-4.7c0.9-1.4,2.5-2.5,4.8-3.2
			c2.3-0.6,4.2-0.6,5.7,0.2c1.5,0.8,2.5,2,3,3.6c0.5,1.6,0.2,3.1-0.7,4.6C152.6,232.9,151,233.9,148.5,234.6L148.5,234.6z
			 M142.3,230.2c0.2,0.8,0.8,1.4,1.6,1.7c0.9,0.3,2.2,0.3,4.1-0.3c1.7-0.5,2.8-1.1,3.4-1.8c0.5-0.7,0.7-1.5,0.5-2.3
			c-0.2-0.8-0.8-1.4-1.6-1.8c-0.9-0.3-2.2-0.2-4.1,0.3c-1.7,0.5-2.9,1.1-3.4,1.9C142.3,228.6,142.1,229.4,142.3,230.2L142.3,230.2z
			 M168.2,222.8l-0.8-2.7l-32.3-6.6l0.8,2.7L168.2,222.8L168.2,222.8z M157.7,213.4c-1.9,0.5-3.7,0.5-5.3-0.1
			c-1.6-0.6-2.7-1.8-3.2-3.6c-0.5-1.7-0.3-3.2,0.6-4.7c0.9-1.4,2.5-2.5,4.8-3.1c2.3-0.6,4.2-0.6,5.7,0.2c1.5,0.8,2.5,2,3,3.6
			c0.5,1.6,0.2,3.1-0.7,4.6C161.8,211.6,160.1,212.7,157.7,213.4L157.7,213.4z M151.5,208.9c0.2,0.8,0.8,1.4,1.6,1.8
			c0.9,0.3,2.2,0.2,4.1-0.3c1.7-0.5,2.8-1.1,3.4-1.8c0.5-0.7,0.7-1.5,0.5-2.3c-0.2-0.8-0.8-1.4-1.6-1.8c-0.9-0.3-2.2-0.2-4.1,0.3
			c-1.7,0.5-2.9,1.1-3.4,1.9C151.4,207.3,151.2,208.1,151.5,208.9L151.5,208.9z M138.9,195.9c-2,0.1-3.7-0.4-5.1-1.4
			c-1.4-1-2.1-2.4-2.2-4.3c0-1.7,0.5-3.2,1.8-4.4c1.2-1.2,3-1.8,5.4-1.9c2.4-0.1,4.2,0.5,5.5,1.6c1.3,1.1,2,2.5,2,4.2
			c0,1.7-0.5,3.1-1.8,4.3C143.3,195.2,141.5,195.8,138.9,195.9L138.9,195.9z M134,190c0,0.8,0.4,1.5,1.1,2.1c0.7,0.5,2.1,0.8,4,0.7
			c1.8,0,3-0.4,3.7-1c0.7-0.6,1.1-1.3,1-2.1c0-0.9-0.4-1.6-1.1-2.1c-0.7-0.5-2.1-0.8-4-0.7c-1.8,0-3,0.4-3.7,0.9
			C134.3,188.5,134,189.2,134,190L134,190z M160.9,189.3l-0.1-2.8l-29.7-14.4l0.1,2.8L160.9,189.3L160.9,189.3z M153.1,177.6
			c-2,0.1-3.7-0.4-5.1-1.4c-1.4-1-2.1-2.4-2.2-4.3c0-1.7,0.5-3.2,1.8-4.4c1.2-1.2,3-1.8,5.4-1.9c2.4-0.1,4.2,0.5,5.5,1.6
			c1.3,1.1,2,2.5,2,4.3c0,1.7-0.5,3.1-1.8,4.2C157.5,176.9,155.6,177.5,153.1,177.6L153.1,177.6z M148.2,171.7c0-0.8,0.3-1.6,1-2.1
			c0.7-0.6,2-0.9,3.7-0.9c1.9,0,3.3,0.2,4,0.7c0.7,0.5,1.1,1.2,1.1,2.1c0,0.8-0.3,1.5-1,2.1c-0.7,0.6-2,0.9-3.7,0.9
			c-1.9,0-3.3-0.2-4-0.7C148.6,173.3,148.2,172.6,148.2,171.7L148.2,171.7z M139.2,155.9c-1.9-0.4-3.5-1.3-4.6-2.6
			c-1.1-1.3-1.5-2.9-1.1-4.7c0.4-1.7,1.3-3,2.8-3.8c1.5-0.8,3.4-1,5.7-0.4c2.3,0.5,3.9,1.5,4.9,2.9c1,1.4,1.3,3,0.9,4.6
			c-0.4,1.6-1.3,2.9-2.8,3.7C143.6,156.4,141.7,156.5,139.2,155.9L139.2,155.9z M135.9,149c-0.2,0.8,0,1.6,0.6,2.3
			c0.6,0.7,1.8,1.3,3.7,1.7c1.7,0.4,3,0.4,3.8,0c0.8-0.4,1.3-1,1.5-1.8c0.2-0.8,0-1.6-0.6-2.3c-0.6-0.7-1.8-1.3-3.7-1.7
			c-1.7-0.4-3-0.4-3.9,0C136.6,147.6,136.1,148.2,135.9,149L135.9,149z M162.1,155.1l0.6-2.8L137.6,131l-0.6,2.7L162.1,155.1
			L162.1,155.1z M157.5,141.7c-1.9-0.4-3.5-1.3-4.6-2.6c-1.1-1.3-1.5-2.9-1-4.7c0.4-1.7,1.3-3,2.8-3.8c1.5-0.8,3.4-1,5.7-0.4
			c2.3,0.5,3.9,1.5,4.9,2.9c1,1.4,1.3,3,0.9,4.6c-0.4,1.6-1.3,2.9-2.8,3.7C161.9,142.2,159.9,142.3,157.5,141.7L157.5,141.7z
			 M154.2,134.8c0.2-0.8,0.7-1.4,1.5-1.8c0.8-0.4,2.1-0.4,3.9,0c1.9,0.4,3.1,1,3.7,1.7c0.6,0.7,0.8,1.5,0.6,2.3
			c-0.2,0.8-0.7,1.4-1.5,1.8c-0.8,0.4-2.1,0.4-3.8,0c-1.9-0.4-3.1-1-3.7-1.7C154.2,136.4,154,135.7,154.2,134.8L154.2,134.8z
			 M149.4,117.5c-1.8-0.9-3-2.1-3.8-3.6c-0.8-1.5-0.7-3.1,0.1-4.8c0.8-1.6,2-2.6,3.6-3c1.6-0.5,3.5-0.1,5.7,1c2.1,1.1,3.4,2.4,4,4
			c0.6,1.6,0.5,3.2-0.3,4.7c-0.8,1.5-2,2.5-3.6,2.9C153.6,119,151.7,118.6,149.4,117.5L149.4,117.5z M147.9,110
			c-0.4,0.8-0.4,1.5,0,2.4c0.4,0.8,1.5,1.7,3.2,2.6c1.6,0.8,2.8,1.1,3.7,0.9c0.9-0.2,1.5-0.6,1.9-1.4c0.4-0.8,0.4-1.6,0-2.4
			c-0.4-0.8-1.5-1.7-3.2-2.6c-1.6-0.8-2.8-1.1-3.7-1C148.9,108.8,148.3,109.2,147.9,110L147.9,110z M171.9,122.2l1.3-2.5L154,92.9
			l-1.3,2.5L171.9,122.2L171.9,122.2z M170.6,108.1c-1.8-0.9-3.1-2.1-3.8-3.6c-0.8-1.5-0.7-3.1,0.1-4.8c0.8-1.6,2-2.6,3.6-3
			c1.6-0.5,3.5-0.1,5.7,1c2.1,1.1,3.4,2.4,4,4c0.6,1.6,0.5,3.2-0.3,4.7c-0.8,1.5-2,2.5-3.6,2.9C174.8,109.6,172.9,109.3,170.6,108.1
			L170.6,108.1z M169.1,100.6c0.4-0.8,1-1.2,1.9-1.4c0.9-0.2,2.1,0.1,3.7,1c1.7,0.9,2.8,1.7,3.2,2.6c0.4,0.8,0.4,1.6,0,2.4
			c-0.4,0.7-1,1.2-1.9,1.4c-0.9,0.2-2.1-0.1-3.7-0.9c-1.7-0.9-2.8-1.7-3.2-2.6C168.7,102.2,168.7,101.4,169.1,100.6L169.1,100.6z
			 M168.9,82.9c-1.5-1.3-2.4-2.8-2.8-4.4c-0.4-1.7,0-3.2,1.3-4.7c1.1-1.3,2.6-2,4.3-2.1c1.7-0.1,3.5,0.7,5.3,2.3
			c1.8,1.5,2.8,3.2,3,4.9c0.2,1.7-0.3,3.2-1.4,4.5c-1.1,1.3-2.5,1.9-4.2,2C172.6,85.4,170.8,84.6,168.9,82.9L168.9,82.9z
			 M169.2,75.3c-0.6,0.6-0.7,1.4-0.6,2.3c0.2,0.9,1,2,2.5,3.3c1.3,1.2,2.5,1.8,3.4,1.8c0.9,0,1.7-0.3,2.2-0.9
			c0.6-0.7,0.8-1.4,0.6-2.3c-0.2-0.9-1-2-2.5-3.3c-1.4-1.2-2.5-1.8-3.4-1.8C170.5,74.3,169.7,74.6,169.2,75.3L169.2,75.3z
			 M189.6,92.9l1.8-2.1l-12.2-30.6l-1.8,2.1L189.6,92.9L189.6,92.9z M191.7,78.9c-1.5-1.3-2.5-2.8-2.8-4.5c-0.4-1.7,0-3.2,1.3-4.7
			c1.1-1.3,2.6-2,4.3-2.1c1.7-0.1,3.4,0.7,5.3,2.3c1.8,1.5,2.8,3.2,3,4.9c0.2,1.7-0.3,3.2-1.4,4.5c-1.1,1.3-2.5,1.9-4.2,1.9
			C195.4,81.4,193.6,80.5,191.7,78.9L191.7,78.9z M192,71.3c0.6-0.6,1.3-0.9,2.2-0.9c0.9,0,2.1,0.6,3.4,1.8c1.5,1.3,2.3,2.4,2.5,3.3
			c0.2,0.9,0,1.7-0.6,2.3c-0.5,0.6-1.3,0.9-2.2,0.9c-0.9,0-2.1-0.6-3.4-1.8c-1.5-1.3-2.3-2.4-2.5-3.3
			C191.2,72.7,191.4,71.9,192,71.3L192,71.3z M196.7,53.1c-1.1-1.7-1.6-3.4-1.5-5.1c0.1-1.7,0.9-3.1,2.5-4.1c1.5-0.9,3-1.2,4.7-0.8
			c1.6,0.4,3.1,1.7,4.4,3.7c1.3,2,1.8,3.8,1.5,5.5c-0.3,1.7-1.2,3-2.6,3.9c-1.4,0.9-2.9,1.1-4.6,0.7C199.5,56.5,198,55.2,196.7,53.1
			L196.7,53.1z M199.1,45.9c-0.7,0.5-1.1,1.1-1.2,2.1c-0.1,0.9,0.4,2.2,1.5,3.8c1,1.5,1.9,2.4,2.7,2.7c0.9,0.3,1.7,0.2,2.4-0.2
			c0.7-0.5,1.1-1.2,1.2-2.1c0.1-0.9-0.4-2.2-1.5-3.8c-1-1.5-1.9-2.4-2.8-2.7C200.6,45.3,199.8,45.4,199.1,45.9L199.1,45.9z
			 M213.7,68.5l-3-32.9l2.3-1.5L216,67L213.7,68.5L213.7,68.5z M219.7,55.7c-1.1-1.7-1.6-3.4-1.5-5.1c0.1-1.7,0.9-3.1,2.6-4.1
			c1.5-0.9,3-1.2,4.7-0.8c1.6,0.4,3.1,1.7,4.4,3.7c1.3,2,1.8,3.8,1.5,5.5c-0.3,1.7-1.2,3-2.6,3.9c-1.4,0.9-2.9,1.1-4.6,0.7
			C222.5,59.1,221,57.8,219.7,55.7L219.7,55.7z M222.1,48.5c-0.7,0.5-1.1,1.2-1.2,2.1c-0.1,0.9,0.4,2.2,1.5,3.8
			c1,1.5,1.9,2.4,2.7,2.7c0.9,0.3,1.7,0.2,2.4-0.2c0.7-0.5,1.1-1.2,1.2-2.1c0.1-0.9-0.4-2.2-1.5-3.8c-1-1.5-1.9-2.4-2.8-2.7
			C223.6,48,222.8,48,222.1,48.5L222.1,48.5z M230.6,32.2c-0.6-1.9-0.7-3.6-0.2-5.3c0.5-1.6,1.7-2.8,3.5-3.4
			c1.7-0.6,3.2-0.4,4.7,0.4c1.5,0.8,2.6,2.4,3.4,4.6c0.8,2.2,0.8,4.1,0.1,5.7c-0.7,1.6-1.8,2.6-3.5,3.2c-1.6,0.5-3.1,0.4-4.6-0.4
			C232.5,36.2,231.4,34.6,230.6,32.2L230.6,32.2z M234.7,25.8c-0.8,0.3-1.4,0.8-1.7,1.7c-0.3,0.9-0.1,2.2,0.5,4.1
			c0.6,1.7,1.2,2.8,2,3.3c0.8,0.5,1.6,0.6,2.3,0.4c0.8-0.3,1.4-0.8,1.7-1.7c0.3-0.9,0.1-2.2-0.5-4.1c-0.6-1.7-1.2-2.8-2-3.3
			C236.3,25.6,235.5,25.5,234.7,25.8L234.7,25.8z M243.3,51.3l5-32.6l2.6-0.9L246,50.4L243.3,51.3L243.3,51.3z M252.3,40.3
			c-0.6-1.9-0.7-3.7-0.2-5.3c0.5-1.6,1.7-2.7,3.5-3.4c1.7-0.6,3.2-0.4,4.7,0.4c1.5,0.8,2.6,2.4,3.4,4.6c0.8,2.2,0.8,4.1,0.1,5.7
			c-0.7,1.6-1.8,2.6-3.5,3.2c-1.6,0.5-3.1,0.4-4.6-0.4C254.2,44.3,253.1,42.7,252.3,40.3L252.3,40.3z M256.4,33.9
			c-0.8,0.3-1.4,0.8-1.7,1.7c-0.3,0.9-0.1,2.2,0.5,4.1c0.6,1.7,1.2,2.8,2,3.3c0.8,0.5,1.5,0.6,2.3,0.4c0.8-0.3,1.4-0.9,1.7-1.7
			c0.3-0.9,0.1-2.2-0.5-4.1c-0.6-1.7-1.2-2.8-2-3.3C258,33.7,257.2,33.6,256.4,33.9L256.4,33.9z M268.7,20.3c-0.2-2,0.2-3.7,1.1-5.2
			c0.9-1.5,2.3-2.3,4.2-2.4c1.7-0.1,3.2,0.4,4.5,1.5c1.2,1.2,2,2.9,2.1,5.3c0.2,2.3-0.3,4.2-1.3,5.6c-1.1,1.4-2.4,2.1-4.1,2.2
			c-1.7,0.1-3.1-0.4-4.3-1.6C269.6,24.7,268.9,22.8,268.7,20.3L268.7,20.3z M274.3,15.1c-0.8,0.1-1.5,0.5-2,1.3
			c-0.5,0.8-0.7,2.1-0.5,4.1c0.1,1.8,0.5,3,1.1,3.7c0.6,0.7,1.4,1,2.2,0.9c0.9-0.1,1.5-0.5,2-1.3c0.5-0.8,0.7-2.1,0.5-4.1
			c-0.1-1.8-0.5-3-1.1-3.7C275.8,15.3,275.1,15,274.3,15.1L274.3,15.1z M276.3,41.9l2.8-0.2L292,11.4l-2.8,0.2L276.3,41.9
			L276.3,41.9z M287.7,33.5c-0.2-2,0.2-3.7,1.1-5.2c0.9-1.5,2.3-2.3,4.2-2.4c1.7-0.1,3.2,0.4,4.5,1.5c1.2,1.2,1.9,2.9,2.1,5.3
			c0.2,2.3-0.3,4.2-1.3,5.5c-1.1,1.4-2.4,2.1-4.1,2.2c-1.7,0.1-3.1-0.4-4.3-1.6C288.6,37.9,287.9,36,287.7,33.5L287.7,33.5z
			 M293.3,28.3c0.8-0.1,1.6,0.2,2.2,0.9c0.6,0.7,1,1.9,1.1,3.7c0.1,1.9,0,3.3-0.5,4.1c-0.5,0.8-1.2,1.2-2.1,1.3
			c-0.8,0.1-1.6-0.2-2.2-0.9c-0.6-0.7-1-1.9-1.1-3.7c-0.1-1.9,0-3.3,0.5-4.1C291.7,28.8,292.4,28.4,293.3,28.3L293.3,28.3z
			 M308.6,18.2c0.3-2,1.1-3.5,2.4-4.7c1.2-1.2,2.8-1.6,4.7-1.3c1.7,0.3,3,1.2,3.9,2.6c0.9,1.4,1.2,3.3,0.7,5.7c-0.4,2.3-1.3,4-2.7,5
			c-1.4,1-2.9,1.4-4.6,1.1c-1.7-0.3-2.9-1.2-3.8-2.6C308.4,22.6,308.2,20.7,308.6,18.2L308.6,18.2z M315.3,14.5
			c-0.8-0.1-1.6,0.1-2.3,0.7c-0.7,0.6-1.2,1.9-1.5,3.8c-0.3,1.7-0.3,3,0.2,3.8c0.4,0.8,1.1,1.3,1.9,1.4c0.8,0.2,1.6-0.1,2.3-0.7
			c0.7-0.6,1.2-1.9,1.5-3.8c0.3-1.8,0.3-3-0.2-3.9C316.8,15.2,316.2,14.7,315.3,14.5L315.3,14.5z M310.6,41l2.8,0.5l20-26.2
			l-2.7-0.5L310.6,41L310.6,41z M323.7,35.7c0.4-2,1.1-3.5,2.4-4.7c1.2-1.2,2.8-1.6,4.7-1.3c1.7,0.3,3,1.2,3.9,2.6
			c0.9,1.4,1.1,3.3,0.7,5.7c-0.4,2.3-1.3,4-2.7,5c-1.4,1-2.9,1.4-4.6,1.1c-1.7-0.3-2.9-1.2-3.8-2.6
			C323.5,40.2,323.3,38.2,323.7,35.7L323.7,35.7z M330.4,32.1c0.8,0.1,1.5,0.6,1.9,1.4c0.4,0.8,0.5,2.1,0.2,3.9
			c-0.3,1.9-0.8,3.2-1.5,3.8c-0.7,0.6-1.4,0.9-2.3,0.7c-0.8-0.1-1.4-0.6-1.9-1.4c-0.4-0.8-0.5-2.1-0.2-3.8c0.3-1.9,0.9-3.2,1.5-3.8
			C328.8,32.2,329.6,31.9,330.4,32.1z"/>
		<path class="st2" d="M347.7,26.1c0.8-1.8,2-3.1,3.5-4c1.5-0.9,3.1-0.9,4.8-0.1c1.6,0.7,2.7,1.9,3.2,3.5s0.3,3.5-0.7,5.7
			c-1,2.1-2.2,3.6-3.8,4.2c-1.6,0.7-3.1,0.7-4.7,0c-1.5-0.7-2.6-1.8-3.1-3.4C346.4,30.4,346.7,28.4,347.7,26.1L347.7,26.1z
			 M355.1,24.2c-0.8-0.3-1.6-0.3-2.4,0.1c-0.8,0.4-1.6,1.5-2.4,3.3c-0.7,1.6-1,2.9-0.8,3.8c0.2,0.9,0.7,1.5,1.5,1.9
			c0.8,0.4,1.6,0.3,2.4-0.1c0.8-0.4,1.6-1.5,2.4-3.3c0.7-1.6,1-2.9,0.8-3.8C356.4,25.2,355.9,24.6,355.1,24.2L355.1,24.2z M344,48.7
			l2.6,1.2l25.9-20.5l-2.5-1.1L344,48.7L344,48.7z M358.1,46.8c0.8-1.8,2-3.2,3.5-4c1.5-0.8,3.1-0.9,4.8-0.1
			c1.6,0.7,2.7,1.9,3.2,3.5c0.5,1.6,0.3,3.5-0.7,5.7c-1,2.1-2.2,3.6-3.8,4.2c-1.6,0.7-3.2,0.7-4.7,0c-1.5-0.7-2.6-1.8-3.1-3.4
			C356.8,51.1,357,49.1,358.1,46.8L358.1,46.8z M365.5,44.9c0.8,0.3,1.3,1,1.5,1.9c0.2,0.9,0,2.2-0.8,3.8c-0.8,1.8-1.6,2.9-2.4,3.3
			c-0.8,0.4-1.6,0.5-2.4,0.1c-0.8-0.3-1.2-1-1.5-1.9c-0.2-0.9,0-2.2,0.8-3.8c0.8-1.8,1.6-2.9,2.4-3.3
			C363.9,44.6,364.7,44.6,365.5,44.9L365.5,44.9z M383.4,43.5c1.2-1.6,2.7-2.6,4.3-3c1.6-0.5,3.2-0.1,4.7,1.1
			c1.4,1.1,2.1,2.5,2.3,4.2c0.1,1.7-0.5,3.5-2,5.4c-1.5,1.8-3,2.9-4.7,3.2c-1.7,0.3-3.2-0.1-4.5-1.2c-1.3-1-2-2.4-2.2-4.1
			C381.1,47.3,381.9,45.5,383.4,43.5L383.4,43.5z M391.1,43.4c-0.7-0.5-1.4-0.7-2.3-0.4c-0.9,0.2-1.9,1.1-3.2,2.6
			c-1.1,1.4-1.6,2.6-1.6,3.5c0,0.9,0.3,1.6,1,2.2c0.7,0.5,1.5,0.7,2.4,0.5c0.9-0.2,1.9-1.1,3.1-2.6c1.1-1.4,1.7-2.6,1.7-3.5
			C392.1,44.7,391.7,43.9,391.1,43.4L391.1,43.4z M374.4,64.6l2.2,1.7l30-13.7l-2.2-1.7L374.4,64.6L374.4,64.6z M388.5,66.1
			c1.2-1.6,2.7-2.6,4.3-3.1c1.6-0.5,3.2-0.1,4.7,1.1c1.4,1.1,2.1,2.5,2.3,4.2c0.1,1.7-0.6,3.5-2,5.4c-1.5,1.8-3,2.9-4.7,3.2
			c-1.7,0.3-3.2-0.1-4.6-1.2c-1.3-1-2-2.4-2.1-4.1C386.2,69.9,387,68.1,388.5,66.1L388.5,66.1z M396.1,66c0.7,0.5,1,1.2,1,2.2
			c0,0.9-0.5,2.1-1.7,3.5c-1.2,1.5-2.2,2.4-3.1,2.6c-0.9,0.2-1.7,0.1-2.4-0.5c-0.7-0.5-1-1.2-1-2.2c0-0.9,0.5-2.1,1.6-3.5
			c1.2-1.5,2.3-2.4,3.1-2.6C394.7,65.3,395.5,65.5,396.1,66L396.1,66z M413.6,69.1c1.6-1.2,3.2-1.9,4.9-1.9c1.7-0.1,3.2,0.6,4.3,2.1
			c1.1,1.4,1.5,2.9,1.2,4.6c-0.3,1.7-1.4,3.3-3.2,4.7c-1.8,1.5-3.6,2.1-5.3,2c-1.7-0.1-3.1-0.9-4.1-2.2c-1-1.3-1.4-2.8-1.1-4.5
			C410.5,72.3,411.7,70.7,413.6,69.1L413.6,69.1z M421.1,70.9c-0.5-0.7-1.2-1-2.2-1c-0.9,0-2.2,0.6-3.7,1.8c-1.4,1.1-2.2,2.1-2.4,3
			c-0.2,0.9-0.1,1.7,0.4,2.3c0.5,0.7,1.3,1,2.2,1c0.9,0,2.1-0.6,3.7-1.8c1.4-1.1,2.2-2.1,2.4-3C421.8,72.3,421.6,71.5,421.1,70.9
			L421.1,70.9z M399.9,87.5l32.4-6.2l1.7,2.2l-32.4,6.2L399.9,87.5L399.9,87.5z M413.2,92.3c1.6-1.2,3.2-1.9,4.9-2
			c1.7-0.1,3.1,0.6,4.3,2.2c1.1,1.4,1.5,2.9,1.2,4.6c-0.3,1.7-1.4,3.3-3.3,4.7c-1.8,1.5-3.6,2.1-5.3,2c-1.7-0.1-3.1-0.9-4.2-2.2
			c-1-1.3-1.4-2.8-1.1-4.5C410.1,95.4,411.3,93.8,413.2,92.3L413.2,92.3z M420.7,94c-0.5-0.7-1.3-1-2.2-1c-0.9,0-2.2,0.6-3.7,1.8
			c-1.4,1.1-2.2,2.1-2.4,3c-0.2,0.9-0.1,1.7,0.4,2.3c0.5,0.7,1.3,1,2.2,1c0.9,0,2.1-0.6,3.7-1.8c1.4-1.1,2.2-2.1,2.4-3
			C421.4,95.4,421.2,94.7,420.7,94L420.7,94z M437.7,102.1c1.8-0.7,3.6-0.9,5.3-0.5c1.7,0.4,2.8,1.5,3.5,3.3
			c0.6,1.6,0.6,3.2-0.1,4.7c-0.7,1.5-2.2,2.7-4.5,3.6c-2.2,0.9-4.1,1-5.7,0.4c-1.6-0.6-2.7-1.7-3.3-3.3c-0.6-1.6-0.6-3.1,0.2-4.6
			C433.8,104.2,435.4,103,437.7,102.1L437.7,102.1z M444.4,105.9c-0.3-0.8-0.9-1.3-1.8-1.6c-0.9-0.3-2.2,0-4.1,0.7
			c-1.7,0.7-2.7,1.4-3.2,2.2c-0.5,0.8-0.5,1.6-0.2,2.4c0.3,0.8,0.9,1.3,1.8,1.6c0.9,0.3,2.2,0,4-0.7c1.7-0.7,2.7-1.4,3.2-2.2
			C444.6,107.4,444.7,106.7,444.4,105.9L444.4,105.9z M419.3,115.8l32.8,3.4l1,2.6l-32.8-3.3L419.3,115.8L419.3,115.8z M430.7,124.1
			c1.9-0.7,3.6-0.9,5.3-0.5c1.6,0.4,2.8,1.5,3.5,3.3c0.6,1.6,0.6,3.2-0.1,4.7c-0.7,1.5-2.2,2.7-4.5,3.6c-2.2,0.9-4.1,1-5.7,0.4
			c-1.6-0.6-2.7-1.7-3.4-3.3c-0.6-1.6-0.5-3.1,0.2-4.6C426.8,126.3,428.4,125.1,430.7,124.1L430.7,124.1z M437.4,127.9
			c-0.3-0.8-0.9-1.3-1.8-1.6c-0.9-0.3-2.2,0-4.1,0.7c-1.6,0.6-2.7,1.4-3.2,2.2c-0.5,0.8-0.6,1.6-0.2,2.4c0.3,0.8,0.9,1.3,1.8,1.6
			c0.9,0.3,2.2,0,4-0.7c1.7-0.7,2.7-1.4,3.2-2.2C437.6,129.5,437.7,128.7,437.4,127.9L437.4,127.9z M451.9,139.4
			c2-0.2,3.7,0,5.2,0.9c1.5,0.8,2.4,2.2,2.6,4.1c0.2,1.7-0.2,3.3-1.3,4.5c-1.1,1.3-2.8,2.1-5.2,2.4c-2.3,0.3-4.2-0.1-5.6-1
			c-1.4-1-2.2-2.3-2.4-4c-0.2-1.7,0.2-3.2,1.3-4.4C447.6,140.6,449.4,139.8,451.9,139.4L451.9,139.4z M457.4,144.7
			c-0.1-0.8-0.6-1.5-1.4-2c-0.8-0.5-2.2-0.6-4.1-0.3c-1.8,0.2-3,0.7-3.6,1.3c-0.6,0.7-0.9,1.4-0.8,2.2c0.1,0.9,0.6,1.5,1.4,2
			c0.8,0.5,2.2,0.6,4.1,0.3c1.8-0.2,3-0.7,3.6-1.3C457.2,146.3,457.5,145.6,457.4,144.7L457.4,144.7z M430.7,148.2l0.4,2.8l31,11.3
			l-0.4-2.8L430.7,148.2L430.7,148.2z M439.7,159.1c2-0.3,3.7,0,5.2,0.9c1.5,0.8,2.4,2.2,2.6,4.1c0.2,1.7-0.2,3.3-1.3,4.5
			c-1.1,1.3-2.8,2.1-5.2,2.4c-2.3,0.3-4.2,0-5.6-1c-1.4-1-2.2-2.3-2.4-4c-0.2-1.7,0.2-3.1,1.3-4.4
			C435.4,160.2,437.2,159.4,439.7,159.1L439.7,159.1z M445.2,164.4c0.1,0.8-0.2,1.6-0.8,2.2c-0.6,0.7-1.9,1.1-3.6,1.3
			c-1.9,0.2-3.3,0.1-4.1-0.3c-0.8-0.5-1.2-1.1-1.4-2c-0.1-0.8,0.2-1.6,0.8-2.2c0.7-0.7,1.9-1.1,3.6-1.3c1.9-0.2,3.3-0.1,4.1,0.3
			C444.6,162.9,445,163.5,445.2,164.4L445.2,164.4z M456.4,179.2c2,0.2,3.6,1,4.8,2.1c1.3,1.2,1.8,2.7,1.5,4.6
			c-0.2,1.7-1,3.1-2.4,4.1c-1.4,1-3.3,1.3-5.7,1c-2.3-0.3-4.1-1.1-5.2-2.4c-1.1-1.3-1.6-2.8-1.3-4.5c0.2-1.7,1-3,2.4-3.9
			C452,179.2,453.9,178.9,456.4,179.2L456.4,179.2z M460.4,185.7c0.1-0.8-0.2-1.6-0.8-2.2c-0.7-0.7-1.9-1.1-3.9-1.3
			c-1.8-0.2-3-0.1-3.8,0.4c-0.8,0.5-1.2,1.1-1.3,2c-0.1,0.9,0.2,1.6,0.8,2.3c0.7,0.7,1.9,1.1,3.9,1.3c1.8,0.2,3.1,0.1,3.8-0.4
			C459.8,187.2,460.3,186.6,460.4,185.7L460.4,185.7z M433.7,182.4l-0.4,2.8l27.2,18.7l0.4-2.8L433.7,182.4L433.7,182.4z
			 M439.7,195.2c2,0.3,3.6,1,4.8,2.1c1.2,1.2,1.7,2.7,1.5,4.6c-0.2,1.7-1,3.1-2.4,4.1c-1.4,1-3.3,1.3-5.7,1
			c-2.3-0.3-4.1-1.1-5.2-2.4c-1.1-1.3-1.6-2.8-1.3-4.5c0.2-1.7,1-3,2.4-3.9C435.2,195.2,437.2,194.9,439.7,195.2L439.7,195.2z
			 M443.6,201.7c-0.1,0.8-0.6,1.5-1.3,2c-0.8,0.5-2.1,0.6-3.8,0.4c-1.9-0.2-3.2-0.7-3.9-1.3c-0.7-0.7-0.9-1.4-0.8-2.3
			c0.1-0.8,0.6-1.5,1.4-1.9c0.8-0.5,2.1-0.6,3.8-0.4c1.9,0.2,3.2,0.7,3.9,1.3C443.5,200.1,443.7,200.9,443.6,201.7L443.6,201.7z
			 M450.9,218.8c1.8,0.7,3.2,1.8,4.2,3.3c0.9,1.4,1,3,0.3,4.8c-0.6,1.6-1.8,2.7-3.3,3.4c-1.6,0.6-3.5,0.5-5.7-0.4
			c-2.2-0.9-3.7-2.1-4.4-3.6c-0.8-1.5-0.8-3.1-0.2-4.7c0.6-1.6,1.7-2.7,3.3-3.2C446.5,217.7,448.5,217.9,450.9,218.8L450.9,218.8z
			 M453.1,226.1c0.3-0.8,0.2-1.6-0.2-2.4c-0.5-0.8-1.6-1.5-3.4-2.3c-1.7-0.7-2.9-0.8-3.8-0.6c-0.9,0.3-1.5,0.8-1.8,1.6
			c-0.3,0.8-0.2,1.6,0.2,2.4c0.5,0.8,1.6,1.5,3.4,2.3c1.7,0.7,2.9,0.9,3.8,0.6C452.2,227.4,452.8,226.9,453.1,226.1L453.1,226.1z
			 M428.1,216.2l-1,2.6l21.7,24.8l1-2.6L428.1,216.2L428.1,216.2z M430.7,230.1c1.9,0.7,3.2,1.8,4.2,3.3c0.9,1.4,1,3,0.3,4.8
			c-0.6,1.6-1.8,2.7-3.3,3.4c-1.6,0.6-3.5,0.5-5.7-0.4c-2.2-0.9-3.7-2.1-4.4-3.6c-0.8-1.5-0.8-3.1-0.2-4.7c0.6-1.6,1.7-2.6,3.3-3.2
			C426.4,229,428.3,229.2,430.7,230.1L430.7,230.1z M432.9,237.4c-0.3,0.8-0.9,1.3-1.8,1.6c-0.9,0.3-2.2,0.1-3.8-0.6
			c-1.8-0.7-2.9-1.5-3.4-2.3c-0.5-0.8-0.6-1.6-0.2-2.4c0.3-0.8,0.9-1.3,1.8-1.6c0.9-0.3,2.2-0.1,3.8,0.6c1.8,0.7,3,1.5,3.4,2.3
			C433.2,235.8,433.2,236.6,432.9,237.4L432.9,237.4z M435.6,255.5c1.6,1.1,2.7,2.5,3.3,4.2c0.6,1.6,0.3,3.2-0.8,4.8
			c-1,1.4-2.4,2.2-4,2.5c-1.7,0.2-3.5-0.4-5.5-1.8c-1.9-1.4-3.1-2.9-3.4-4.6c-0.4-1.7-0.1-3.2,0.9-4.6c1-1.4,2.3-2.2,4-2.3
			C431.7,253.4,433.5,254.1,435.6,255.5L435.6,255.5z M436,263.1c0.5-0.7,0.6-1.5,0.3-2.4c-0.3-0.9-1.2-1.9-2.8-3
			c-1.4-1-2.6-1.5-3.5-1.5c-0.9,0-1.6,0.4-2.1,1.1c-0.5,0.7-0.6,1.5-0.3,2.4c0.3,0.9,1.2,1.9,2.8,3c1.5,1,2.6,1.5,3.6,1.5
			C434.8,264.2,435.5,263.8,436,263.1L436,263.1z M414.1,247.6l-1.6,2.3l15.1,29.3l1.6-2.3L414.1,247.6L414.1,247.6z M413.3,261.7
			c1.6,1.2,2.7,2.5,3.3,4.2c0.5,1.6,0.3,3.2-0.8,4.8c-1,1.4-2.4,2.2-4,2.5c-1.7,0.2-3.5-0.4-5.5-1.8c-1.9-1.4-3.1-2.9-3.4-4.6
			c-0.4-1.7,0-3.2,0.9-4.6c1-1.4,2.3-2.1,4-2.3C409.4,259.6,411.2,260.2,413.3,261.7L413.3,261.7z M413.7,269.3
			c-0.5,0.7-1.2,1.1-2.1,1.1c-0.9,0-2.1-0.4-3.6-1.5c-1.6-1.1-2.5-2.1-2.8-3c-0.3-0.9-0.2-1.7,0.4-2.4c0.5-0.7,1.2-1,2.1-1.1
			c0.9,0,2.1,0.4,3.5,1.5c1.6,1.1,2.5,2.1,2.8,3C414.3,267.8,414.2,268.6,413.7,269.3L413.7,269.3z M411.8,287.2
			c1.3,1.5,2,3.1,2.2,4.8c0.2,1.7-0.5,3.2-1.9,4.4c-1.3,1.1-2.8,1.6-4.5,1.4c-1.7-0.2-3.3-1.2-4.9-3c-1.5-1.8-2.3-3.5-2.2-5.2
			c0-1.7,0.7-3.1,2-4.2c1.3-1.1,2.8-1.6,4.4-1.3C408.5,284.3,410.1,285.3,411.8,287.2L411.8,287.2z M410.4,294.7
			c0.6-0.6,0.9-1.3,0.9-2.2c-0.1-0.9-0.7-2.1-2-3.6c-1.2-1.3-2.2-2.1-3.1-2.3c-0.9-0.2-1.7,0-2.3,0.6c-0.7,0.6-1,1.3-0.9,2.2
			c0.1,0.9,0.7,2.1,2,3.6c1.2,1.4,2.2,2.1,3.1,2.3C409,295.5,409.8,295.3,410.4,294.7L410.4,294.7z M392.7,274.4l-2.1,1.8l7.7,32.1
			l2.1-1.8L392.7,274.4L392.7,274.4z M388.6,287.9c1.3,1.5,2,3.1,2.2,4.8c0.1,1.7-0.5,3.2-1.9,4.4c-1.3,1.1-2.8,1.6-4.5,1.4
			c-1.7-0.2-3.3-1.2-4.9-3c-1.5-1.8-2.3-3.5-2.2-5.2c0-1.7,0.7-3.1,2-4.3c1.3-1.1,2.7-1.5,4.4-1.3C385.3,285,387,286.1,388.6,287.9
			L388.6,287.9z M387.3,295.5c0.7-0.6,0.9-1.3,0.9-2.2c-0.1-0.9-0.7-2.1-2-3.6c-1.2-1.3-2.2-2.1-3.1-2.3c-0.9-0.2-1.7,0-2.3,0.5
			c-0.7,0.6-1,1.3-0.9,2.2c0.1,0.9,0.7,2.1,2,3.6c1.2,1.4,2.2,2.1,3.1,2.3C385.8,296.2,386.6,296,387.3,295.5L387.3,295.5z
			 M380.9,312.1c0.9,1.8,1.2,3.5,1,5.2c-0.3,1.7-1.2,3-2.9,3.8c-1.6,0.8-3.1,0.9-4.7,0.3c-1.6-0.6-2.9-2-4-4.1
			c-1.1-2.1-1.4-4-0.9-5.6c0.5-1.7,1.4-2.9,2.9-3.6c1.5-0.8,3-0.9,4.6-0.3C378.4,308.5,379.7,309.9,380.9,312.1L380.9,312.1z
			 M377.8,319.1c0.8-0.4,1.2-1,1.4-1.9c0.2-0.9-0.2-2.2-1.1-4c-0.8-1.6-1.6-2.6-2.5-2.9c-0.8-0.4-1.6-0.4-2.4,0
			c-0.8,0.4-1.2,1-1.4,1.9c-0.2,0.9,0.2,2.2,1.1,3.9c0.8,1.6,1.6,2.6,2.5,3C376.2,319.5,377,319.5,377.8,319.1L377.8,319.1z
			 M365.5,295.1l-0.1,33l-2.5,1.3l0.1-33L365.5,295.1L365.5,295.1z M358.2,307.3c0.9,1.8,1.2,3.5,1,5.2c-0.3,1.7-1.2,3-2.9,3.8
			c-1.6,0.8-3.1,0.9-4.7,0.3c-1.6-0.6-2.9-2-4-4.1c-1.1-2.1-1.4-4-0.9-5.6c0.5-1.7,1.4-2.9,3-3.7c1.5-0.8,3-0.8,4.6-0.2
			C355.7,303.6,357.1,305.1,358.2,307.3L358.2,307.3z M355.1,314.3c0.8-0.4,1.2-1,1.4-1.9c0.2-0.9-0.2-2.2-1.1-4
			c-0.8-1.6-1.6-2.5-2.5-2.9c-0.8-0.4-1.6-0.4-2.4,0c-0.8,0.4-1.2,1-1.4,2c-0.2,0.9,0.2,2.2,1.1,3.9c0.8,1.6,1.6,2.6,2.5,3
			C353.6,314.7,354.4,314.7,355.1,314.3z"/>
	</g>
	<circle class="st3" cx="297" cy="177.1" r="127.8"/>
	<g>
		<linearGradient id="SVGID_3_" gradientUnits="userSpaceOnUse" x1="580.6849" y1="106.3045" x2="-26.4567" y2="376.6213">
			<stop  offset="0" style="stop-color:#A5CD39"/>
			<stop  offset="2.000000e-02" style="stop-color:#A5CD39"/>
			<stop  offset="1" style="stop-color:#00A551"/>
		</linearGradient>
		<path class="st4" d="M350.3,214.6c-10.1,19-30.5,37.1-55.3,40.8c-17.4,2.6-52.3-1.9-51.1-23.6c31.7,23.6,86.7,12.1,105.7-17.8
			L350.3,214.6z"/>
		<linearGradient id="SVGID_4_" gradientUnits="userSpaceOnUse" x1="607.5171" y1="-230.9214" x2="180.3338" y2="315.8483">
			<stop  offset="0" style="stop-color:#A5CD39"/>
			<stop  offset="2.000000e-02" style="stop-color:#A5CD39"/>
			<stop  offset="1" style="stop-color:#00A551"/>
		</linearGradient>
		<path class="st5" d="M332.3,177.2c1.1,4.4,3.6,7.6,7.4,9.8c3.8,2.2,7.9,2.7,12.3,1.6c4.3-1.1,7.6-3.6,9.8-7.3
			c2.2-3.8,2.8-7.8,1.7-12.2c-1.1-4.3-3.6-7.7-7.4-9.9c-3.8-2.3-7.9-2.9-12.2-1.7c-4.3,1.1-7.7,3.6-9.9,7.5
			C331.8,168.8,331.2,172.9,332.3,177.2L332.3,177.2z M310.5,182.6c-2-7.8-1-15.1,3-21.9c4-6.8,9.9-11.2,17.7-13.3
			c7.8-2,15-1,21.8,3c6.8,4,11.2,9.9,13.2,17.7c2,7.7,1,15-3.1,21.8c-4,6.8-9.9,11.2-17.6,13.2c-7.8,2-15.1,1-21.9-3
			C316.9,196.2,312.5,190.3,310.5,182.6L310.5,182.6z M274.8,221.5c24.4-22.7,25.6-64,49.1-115.9
			C305.8,113.1,290.2,175.5,274.8,221.5L274.8,221.5z M255,155.4c-1.1-4.4-0.6-8.4,1.7-12.2c2.2-3.8,5.4-6.9,9.9-7.3
			c4.5-0.5,8.6,0,12.2,1.7c4.1,1.8,6.3,5.5,7.4,9.8c1.1,4.4,0.6,8.5-1.7,12.3c-2.3,3.8-5.6,6.3-9.9,7.4c-4.4,1.1-8.4,0.5-12.2-1.7
			C258.6,163.1,256.1,159.7,255,155.4L255,155.4z M232.3,159.1c-2-7.8-1-15.1,3-21.9c4-6.8,9.9-11.2,17.7-13.2c7.8-2,15.1-1,21.9,3
			c6.9,4,11.3,9.9,13.3,17.6c2,7.8,1,15-3.1,21.8c-4.1,6.8-10,11.2-17.7,13.2c-7.8,2-15,1-21.8-3
			C238.7,172.8,234.4,166.9,232.3,159.1z"/>
	</g>
</g>
<linearGradient id="SVGID_5_" gradientUnits="userSpaceOnUse" x1="307.59" y1="222.0239" x2="281.642" y2="717.141">
	<stop  offset="0" style="stop-color:#6D065C"/>
	<stop  offset="0.16" style="stop-color:#6D065C"/>
	<stop  offset="1" style="stop-color:#A2238D"/>
</linearGradient>
<path class="st6" d="M144.9,463.5c0.7,0,1-0.3,1-1.1l0.1-6.8c0-0.8-0.3-1.1-1-1.1h-37.1v-27.7h30.4c0.8,0,1.1-0.3,1.1-1v-7
	c0-0.7-0.3-1-1.1-1h-30.4v-24h33.4c0.7,0,1-0.3,1-1.1v-6.8c0-0.8-0.3-1.1-1-1.1H91.6c-0.8,0-1.1,0.3-1.1,1.1v6.3
	c0,0.8,0.3,1.1,1.1,1.1H97v61.6h-5.3c-0.8,0-1.1,0.3-1.1,1.1v6.3c0,0.8,0.3,1.1,1.1,1.1H144.9L144.9,463.5z M232.2,463.5
	c0.7,0,1-0.3,1-1.1V456c0-0.8-0.3-1.1-1-1.1h-7l-25-41.5l18.6-20.1h9.8c0.8,0,1.1-0.3,1.1-1.1v-6.3c0-0.8-0.3-1.1-1.1-1.1h-14.3
	c-0.3,0-0.6,0.1-0.8,0.3l-31.6,34.7v-33.9c0-0.8-0.3-1.1-1-1.1h-15.3c-0.8,0-1.1,0.3-1.1,1.1v6.3c0,0.8,0.3,1.1,1.1,1.1h5.4v61.6
	h-5.4c-0.8,0-1.1,0.3-1.1,1.1v6.3c0,0.8,0.3,1.1,1.1,1.1h15.3c0.7,0,1-0.3,1-1.1v-28.9l10.6-11.6l24.5,41c0.1,0.3,0.4,0.6,1,0.6
	H232.2L232.2,463.5z M300,442.4c0-15-9.7-20-23.5-24.8c-11.8-3.8-15.8-7.5-15.8-14.1c0-7.2,6.1-11.7,15.5-11.7c8,0,13.5,2,17.1,3.4
	c0.6,0.3,1.1,0.1,1.4-0.4l2.4-6.7c0.3-0.8,0.1-1.2-0.6-1.3c-3.6-1.8-13-4.1-20.3-4.1c-15.9,0-26.2,7.9-26.2,21.9
	c0,14.7,12,19.6,23.6,23.5c8.6,3,15.1,6.3,15.1,14.7c0,8.9-6.2,13-16.9,13c-8.6,0-15.1-2.7-19.9-4.8c-0.8-0.3-1.4,0.1-1.4,1v8.1
	c0,0.6,0.2,0.9,0.6,1c5.2,2.1,12.5,4.3,21.3,4.3C289.1,465.5,300,457.5,300,442.4L300,442.4z M336.9,457.9c0-3.6-3-6.7-6.7-6.7
	c-3.7,0-6.7,3.1-6.7,6.7c0,3.9,3.2,6.7,6.7,6.7C333.7,464.6,336.9,461.8,336.9,457.9L336.9,457.9z M428.7,463.5
	c0.8,0,1.1-0.3,1.1-1.1V456c0-0.8-0.3-1.1-1.1-1.1H423l-23.7-69.4c-0.1-0.6-0.4-0.8-1-0.8h-9.1c-0.6,0-0.9,0.2-1,0.8l-25.4,69.4
	h-5.4c-0.7,0-1,0.3-1,1.1v6.3c0,0.8,0.3,1.1,1,1.1h12.1c0.6,0,0.9-0.2,1-0.8l9.1-25.9h25.7l8.6,25.9c0.1,0.6,0.4,0.8,1.1,0.8H428.7
	L428.7,463.5z M393.1,399.1l9.1,28.4h-19.3L393.1,399.1L393.1,399.1z M502.4,463.5c0.8,0,1.1-0.3,1.1-1.1v-7c0-0.8-0.3-1.1-1.1-1.1
	h-43.6l44.1-60.5v-7.9c0-0.8-0.3-1.1-1.1-1.1h-54c-0.7,0-1,0.3-1,1.1v7c0,0.8,0.3,1.1,1,1.1H490l-43.9,60.2v8.2c0,0.8,0.3,1.1,1,1.1
	H502.4z"/>
</svg>
